<svg id="Layer_1" data-name="Layer 1" xmlns="http://www.w3.org/2000/svg" viewBox="0 0 127.96 143.24"><defs><style>.cls-1{fill:#ed9b1f;}.cls-2{fill:#f0b60e;}.cls-3{fill:#808066;}.cls-4{fill:#ca7a12;}.cls-5{fill:#b3b38f;}.cls-6{fill:none;stroke:#1a2d3e;stroke-linecap:round;stroke-linejoin:round;stroke-width:3px;}.cls-7{fill:#7fcadf;}</style></defs><title>picto_GARANTIE-FINANC</title><path class="cls-1" d="M1.11,81.73c8.52-.94,22.45,1.4,33.76,7.09L65.09,42.91A71.52,71.52,0,0,0,1.11,81.73Z" transform="translate(-1.11 -1)"/><path class="cls-1" d="M129.08,81.73c-8.52-.94-22.46,1.4-33.76,7.09L65.09,42.91A71.54,71.54,0,0,1,129.08,81.73Z" transform="translate(-1.11 -1)"/><path class="cls-2" d="M65.09,86.09c10.5,0,30.23,2.72,30.23,2.72C90.83,62,79,42.91,65.09,42.91S39.35,62,34.87,88.81C34.87,88.81,54.6,86.09,65.09,86.09Z" transform="translate(-1.11 -1)"/><path class="cls-3" d="M66.94,86.18v38H64.05v-38c.47,0,1-.05,1.44-.05S66.46,86.14,66.94,86.18Z" transform="translate(-1.11 -1)"/><path class="cls-2" d="M79.58,133.41v2.92a7.74,7.74,0,0,1-8.1,7.91c-6.18,0-8.39-4.66-8.39-8.11V125.6c0-.91.21-1.46,1-1.46h2.89c.31,0,1,.15,1,1.46v10.33a3.25,3.25,0,0,0,3.52,3.52c2.65,0,3.41-1.68,3.41-3.46v-2.58a2.23,2.23,0,0,1,2.39-1.94C79.17,131.47,79.58,132.64,79.58,133.41Z" transform="translate(-1.11 -1)"/><path class="cls-4" d="M77.27,131.47v4.19c0,1.38-.07,6.33-5.79,6.33s-6-5.41-6-7,0-9.28,0-10.3v-.57h1.45c.31,0,1,.15,1,1.46v10.33a3.25,3.25,0,0,0,3.52,3.52c2.65,0,3.41-1.68,3.41-3.46v-2.58A2.23,2.23,0,0,1,77.27,131.47Z" transform="translate(-1.11 -1)"/><path class="cls-5" d="M65.49,86.13v38H64.05v-38C64.52,86.14,65,86.13,65.49,86.13Z" transform="translate(-1.11 -1)"/><line class="cls-6" x1="64.05" y1="38.71" x2="64.05" y2="41.6"/><path class="cls-7" d="M55.59,22.58c0,.2.25.37.56.37h0c.31,0,.56-.17.56-.37V18.45c0-.2-.25-.37-.56-.37h0c-.31,0-.56.17-.56.37Z" transform="translate(-1.11 -1)"/><path class="cls-7" d="M55.59,30.5c0,.21.25.37.56.37h0c.31,0,.56-.16.56-.37V26.38c0-.21-.25-.38-.56-.38h0c-.31,0-.56.17-.56.38Z" transform="translate(-1.11 -1)"/><path class="cls-7" d="M55.59,38.58c0,.21.25.38.56.38h0c.31,0,.56-.17.56-.38V34.46c0-.21-.25-.37-.56-.37h0c-.31,0-.56.16-.56.37Z" transform="translate(-1.11 -1)"/><path class="cls-7" d="M55.59,5.5c0,.2.25.37.56.37h0c.31,0,.56-.17.56-.37V1.37c0-.2-.25-.37-.56-.37h0c-.31,0-.56.17-.56.37Z" transform="translate(-1.11 -1)"/><path class="cls-7" d="M55.59,13.58c0,.21.25.38.56.38h0c.31,0,.56-.17.56-.38V9.46c0-.21-.25-.38-.56-.38h0c-.31,0-.56.17-.56.38Z" transform="translate(-1.11 -1)"/><path class="cls-7" d="M75.71,7.21c0,.21.25.38.56.38h0c.31,0,.56-.17.56-.38V3.09c0-.21-.25-.38-.56-.38h0c-.31,0-.56.17-.56.38Z" transform="translate(-1.11 -1)"/><path class="cls-7" d="M75.71,16.19c0,.2.25.37.56.37h0c.31,0,.56-.17.56-.37V12.07c0-.21-.25-.38-.56-.38h0c-.31,0-.56.17-.56.38Z" transform="translate(-1.11 -1)"/><path class="cls-7" d="M75.71,25.16c0,.21.25.38.56.38h0c.31,0,.56-.17.56-.38V21c0-.21-.25-.37-.56-.37h0c-.31,0-.56.16-.56.37Z" transform="translate(-1.11 -1)"/><path class="cls-7" d="M75.71,34.14c0,.21.25.37.56.37h0c.31,0,.56-.16.56-.37V30c0-.21-.25-.38-.56-.38h0c-.31,0-.56.17-.56.38Z" transform="translate(-1.11 -1)"/><path class="cls-7" d="M75.71,43.11c0,.21.25.38.56.38h0c.31,0,.56-.17.56-.38V39c0-.21-.25-.37-.56-.37h0c-.31,0-.56.16-.56.37Z" transform="translate(-1.11 -1)"/><path class="cls-7" d="M34.74,12.61c0,.21.25.37.55.37h0c.31,0,.56-.16.56-.37V8.49c0-.21-.25-.38-.56-.38h0c-.3,0-.55.17-.55.38Z" transform="translate(-1.11 -1)"/><path class="cls-7" d="M34.74,21.59c0,.2.25.37.55.37h0c.31,0,.56-.17.56-.37V17.46c0-.2-.25-.37-.56-.37h0c-.3,0-.55.17-.55.37Z" transform="translate(-1.11 -1)"/><path class="cls-7" d="M34.74,30.56c0,.21.25.38.55.38h0c.31,0,.56-.17.56-.38V26.44c0-.21-.25-.38-.56-.38h0c-.3,0-.55.17-.55.38Z" transform="translate(-1.11 -1)"/><path class="cls-7" d="M34.74,39.54c0,.2.25.37.55.37h0c.31,0,.56-.17.56-.37V35.41c0-.2-.25-.37-.56-.37h0c-.3,0-.55.17-.55.37Z" transform="translate(-1.11 -1)"/><path class="cls-7" d="M34.74,48.51c0,.21.25.38.55.38h0c.31,0,.56-.17.56-.38V44.39c0-.21-.25-.38-.56-.38h0c-.3,0-.55.17-.55.38Z" transform="translate(-1.11 -1)"/><path class="cls-7" d="M34.74,3.79c0,.12.25.22.55.22h0c.31,0,.56-.1.56-.22V1.43c0-.11-.25-.21-.56-.21h0c-.3,0-.55.1-.55.21Z" transform="translate(-1.11 -1)"/><path class="cls-7" d="M93.58,14.45c0,.21.25.38.55.38h0c.31,0,.56-.17.56-.38V10.33c0-.21-.25-.37-.56-.37h0c-.3,0-.55.16-.55.37Z" transform="translate(-1.11 -1)"/><path class="cls-7" d="M93.58,23c0,.21.25.38.55.38h0c.31,0,.56-.17.56-.38V18.83c0-.21-.25-.38-.56-.38h0c-.3,0-.55.17-.55.38Z" transform="translate(-1.11 -1)"/><path class="cls-7" d="M93.58,31.45c0,.21.25.37.55.37h0c.31,0,.56-.16.56-.37V27.33c0-.21-.25-.38-.56-.38h0c-.3,0-.55.17-.55.38Z" transform="translate(-1.11 -1)"/><path class="cls-7" d="M93.58,40c0,.2.25.37.55.37h0c.31,0,.56-.17.56-.37V35.82c0-.2-.25-.37-.56-.37h0c-.3,0-.55.17-.55.37Z" transform="translate(-1.11 -1)"/><path class="cls-7" d="M93.58,48.45c0,.2.25.37.55.37h0c.31,0,.56-.17.56-.37V44.32c0-.2-.25-.37-.56-.37h0c-.3,0-.55.17-.55.37Z" transform="translate(-1.11 -1)"/><path class="cls-7" d="M93.58,6c0,.2.25.37.55.37h0c.31,0,.56-.17.56-.37V1.83c0-.2-.25-.37-.56-.37h0c-.3,0-.55.17-.55.37Z" transform="translate(-1.11 -1)"/><path class="cls-7" d="M95.53,48.52c-.18.11-.18.41,0,.66h0c.17.25.45.36.62.24l3.51-2.28c.18-.11.18-.41,0-.66h0c-.17-.25-.45-.36-.63-.24Z" transform="translate(-1.11 -1)"/><path class="cls-7" d="M55.51,43.46c.15.15.45.1.67-.12h0c.21-.21.27-.5.12-.64l-1.94-1.91a.49.49,0,0,0-.66.11h0c-.22.22-.28.51-.13.65Z" transform="translate(-1.11 -1)"/><path class="cls-7" d="M51.07,40c.2.07.45-.1.56-.38h0c.11-.28,0-.56-.16-.64L48.9,38c-.2-.08-.45.09-.56.37h0c-.11.28,0,.57.16.64Z" transform="translate(-1.11 -1)"/><path class="cls-7" d="M33.82,49.5c.13.16.43.14.67,0h0c.23-.2.32-.48.18-.64l-1.74-2.08a.51.51,0,0,0-.68.06h0c-.23.19-.32.47-.18.63Z" transform="translate(-1.11 -1)"/><path class="cls-7" d="M55.59,43.17c0,.21.25.38.56.38h0c.31,0,.56-.17.56-.38V41.59c0-.21-.25-.37-.56-.37h0c-.31,0-.56.16-.56.37Z" transform="translate(-1.11 -1)"/><path class="cls-7" d="M104,44.81a1.36,1.36,0,0,1-.23,2.71c-.75-.06-1.79-.94-3.17-1.63C102.08,45.48,103.22,44.75,104,44.81Z" transform="translate(-1.11 -1)"/><path class="cls-7" d="M27.92,47.05a1.36,1.36,0,1,1,.68-2.63c.73.19,1.61,1.23,2.85,2.15C29.89,46.72,28.64,47.24,27.92,47.05Z" transform="translate(-1.11 -1)"/><path class="cls-7" d="M43.27,39a1.46,1.46,0,0,1,.12-2.92c.81,0,2,.93,3.48,1.61C45.27,38.23,44.07,39.07,43.27,39Z" transform="translate(-1.11 -1)"/></svg>