<svg id="Layer_1" data-name="Layer 1" xmlns="http://www.w3.org/2000/svg" viewBox="0 0 254.11 347"><defs><style>.cls-1{fill:#56828c;}.cls-2{fill:#f2f2f2;}.cls-3{fill:#f8b03b;}.cls-4{fill:#e99628;}.cls-5{fill:#03686b;}.cls-6{fill:#ccc;}</style></defs><title>picto_VOYAGE-TOUT-COMPRIS</title><g id="Checklist_Icon" data-name="Checklist Icon"><rect class="cls-1" y="44.87" width="254.11" height="302.13" rx="24.77"/><rect class="cls-2" x="12.38" y="57.26" width="229.34" height="277.36" rx="12.38"/><path class="cls-3" d="M171.59,24.13H158.73a3.09,3.09,0,0,1-3.1-3.09V16.39A15.48,15.48,0,0,0,140.15.91H116.27a15.48,15.48,0,0,0-15.48,15.48V21a3.09,3.09,0,0,1-3.1,3.09H84.83A15.48,15.48,0,0,0,69.35,39.61V69H187.07V39.61A15.48,15.48,0,0,0,171.59,24.13Zm-34.44,4.38a5,5,0,0,1-5,4.95h-8a5,5,0,0,1-5-4.95v-8a5,5,0,0,1,5-5h8a5,5,0,0,1,5,5Z" transform="translate(-1.15 -0.91)"/><path class="cls-4" d="M69.35,69v5a3.1,3.1,0,0,0,3.1,3.1H184a3.1,3.1,0,0,0,3.1-3.1V69Z" transform="translate(-1.15 -0.91)"/><path class="cls-4" d="M172.79,52.56h-7.18a3.1,3.1,0,0,1,0-6.19h7.18a3.1,3.1,0,0,1,0,6.19Z" transform="translate(-1.15 -0.91)"/><path class="cls-4" d="M147,52.56H83.63a3.1,3.1,0,0,1,0-6.19H147a3.1,3.1,0,0,1,0,6.19Z" transform="translate(-1.15 -0.91)"/><path class="cls-5" d="M54,151.52,37.8,135.37a3.1,3.1,0,0,1,0-4.38l6.57-6.57a3.11,3.11,0,0,1,4.38,0l6.08,6.09a1.87,1.87,0,0,0,2.63,0L78.6,109.37a3.1,3.1,0,0,1,4.38,0l6.56,6.56a3.1,3.1,0,0,1,0,4.38L58.33,151.52A3.1,3.1,0,0,1,54,151.52Z" transform="translate(-1.15 -0.91)"/><path class="cls-5" d="M54,224.53,37.8,208.37a3.1,3.1,0,0,1,0-4.38l6.57-6.56a3.1,3.1,0,0,1,4.38,0l6.08,6.08a1.87,1.87,0,0,0,2.63,0L78.6,182.37a3.1,3.1,0,0,1,4.38,0l6.56,6.57a3.08,3.08,0,0,1,0,4.37L58.33,224.53A3.1,3.1,0,0,1,54,224.53Z" transform="translate(-1.15 -0.91)"/><path class="cls-5" d="M54,297.53,37.8,281.38a3.1,3.1,0,0,1,0-4.38l6.57-6.57a3.1,3.1,0,0,1,4.38,0l6.08,6.08a1.85,1.85,0,0,0,2.63,0L78.6,255.37a3.1,3.1,0,0,1,4.38,0l6.56,6.57a3.1,3.1,0,0,1,0,4.38L58.33,297.53A3.1,3.1,0,0,1,54,297.53Z" transform="translate(-1.15 -0.91)"/><rect class="cls-6" x="118.61" y="106.27" width="99.76" height="15.48" rx="3.1"/><rect class="cls-6" x="182.07" y="137.33" width="14.63" height="15.48" rx="3.1"/><rect class="cls-6" x="118.61" y="137.33" width="50.15" height="15.48" rx="3.1"/><rect class="cls-6" x="118.61" y="179.27" width="99.76" height="15.48" rx="3.1"/><rect class="cls-6" x="182.07" y="210.33" width="14.63" height="15.48" rx="3.1"/><rect class="cls-6" x="118.61" y="210.33" width="50.15" height="15.48" rx="3.1"/><rect class="cls-6" x="118.61" y="252.27" width="99.76" height="15.48" rx="3.1"/><rect class="cls-6" x="182.07" y="283.33" width="14.63" height="15.48" rx="3.1"/><rect class="cls-6" x="118.61" y="283.33" width="50.15" height="15.48" rx="3.1"/></g></svg>