<svg id="Layer_1" data-name="Layer 1" xmlns="http://www.w3.org/2000/svg" xmlns:xlink="http://www.w3.org/1999/xlink" viewBox="0 0 94 76.35"><defs><style>.cls-1,.cls-4{fill:#44677a;}.cls-1,.cls-2,.cls-6,.cls-7,.cls-8{stroke:#1e313c;}.cls-1,.cls-2,.cls-3,.cls-6,.cls-7,.cls-8{stroke-linecap:round;stroke-linejoin:round;stroke-width:2px;}.cls-2,.cls-3{fill:#337a59;}.cls-3{stroke:#262626;}.cls-5{clip-path:url(#clip-path);}.cls-6{fill:#63b877;}.cls-7{fill:none;}.cls-8{fill:#ed9b1f;}.cls-9{fill:#1e313c;}</style><clipPath id="clip-path" transform="translate(-0.41 -0.25)"><path class="cls-1" d="M59.48,41.82h0L38.59,53.88a5.39,5.39,0,0,1-4.87-.2L2.6,35.72c-1.44-.83-1.59-2.09-.35-2.81l20.9-12.07ZM92.22,19.91l-31.11-18a5.44,5.44,0,0,0-4.88-.2L35.34,13.81l36.33,21h0l20.9-12.06C93.82,22,93.66,20.74,92.22,19.91Z"/></clipPath></defs><title>picto_PRIX</title><path class="cls-2" d="M92.22,30.52l-6.58-3.8-14,8.06V45.4l20.9-12.07C93.82,32.61,93.66,31.35,92.22,30.52Z" transform="translate(-0.41 -0.25)"/><path class="cls-2" d="M38.59,53.88a5.39,5.39,0,0,1-4.87-.2L9.19,39.52l-6.94,4c-1.24.72-1.09,2,.35,2.81l31.12,18a5.42,5.42,0,0,0,4.87.2L59.48,52.44V41.82Z" transform="translate(-0.41 -0.25)"/><path class="cls-3" d="M92.22,41.14l-6.58-3.8-14,8.06V56L92.57,44C93.82,43.23,93.66,42,92.22,41.14Z" transform="translate(-0.41 -0.25)"/><path class="cls-3" d="M38.59,64.5a5.42,5.42,0,0,1-4.87-.2L9.19,50.13l-6.94,4c-1.24.72-1.09,2,.35,2.81l31.12,18a5.36,5.36,0,0,0,4.87.2L59.48,63.05V52.44Z" transform="translate(-0.41 -0.25)"/><path class="cls-4" d="M59.48,41.82h0L38.59,53.88a5.39,5.39,0,0,1-4.87-.2L2.6,35.72c-1.44-.83-1.59-2.09-.35-2.81l20.9-12.07ZM92.22,19.91l-31.11-18a5.44,5.44,0,0,0-4.88-.2L35.34,13.81l36.33,21h0l20.9-12.06C93.82,22,93.66,20.74,92.22,19.91Z" transform="translate(-0.41 -0.25)"/><g class="cls-5"><path class="cls-6" d="M92.57,22.72l-54,31.16a5.39,5.39,0,0,1-4.87-.2L2.6,35.72c-1.44-.83-1.59-2.09-.35-2.81l54-31.17a5.44,5.44,0,0,1,4.88.2l31.11,18C93.66,20.74,93.82,22,92.57,22.72Z" transform="translate(-0.41 -0.25)"/><path class="cls-6" d="M78.26,18.88,62.88,10A29.31,29.31,0,0,1,54,10L16.59,31.62a5.89,5.89,0,0,1,0,5.12l15.38,8.88a29.37,29.37,0,0,1,8.88,0L78.23,24A5.92,5.92,0,0,1,78.26,18.88Z" transform="translate(-0.41 -0.25)"/></g><path class="cls-7" d="M59.48,41.82h0L38.59,53.88a5.39,5.39,0,0,1-4.87-.2L2.6,35.72c-1.44-.83-1.59-2.09-.35-2.81l20.9-12.07ZM92.22,19.91l-31.11-18a5.44,5.44,0,0,0-4.88-.2L35.34,13.81l36.33,21h0l20.9-12.06C93.82,22,93.66,20.74,92.22,19.91Z" transform="translate(-0.41 -0.25)"/><polygon class="cls-8" points="71.26 34.53 34.93 13.55 22.74 20.59 59.07 41.57 59.07 62.8 71.26 55.76 71.26 34.53"/><path class="cls-9" d="M30,39.43,28.5,40.51l-1.42-1,1.28-.91a7.57,7.57,0,0,1-.66-.44l0,0A5.92,5.92,0,0,1,27,37.6l-1.3.93-1.42-1,1.56-1.12c-1.6-2-1.51-4.4.84-6.08A8.44,8.44,0,0,1,32.9,29l-.39,1.91a5.47,5.47,0,0,0-4.09.77,2.18,2.18,0,0,0-.52,3.25l3.58-2.55,1.43,1L29,36.13c.2.16.44.35.69.52l0,0c.24.16.47.3.71.44l3.89-2.78,1.43,1-3.6,2.56A5.39,5.39,0,0,0,37,37.44a2.49,2.49,0,0,0,1-2.93l2.54-.3a3.79,3.79,0,0,1-1.67,4.52A9.28,9.28,0,0,1,30,39.43Z" transform="translate(-0.41 -0.25)"/><path class="cls-9" d="M58.64,23.28l-1.49,1.06-1.39-1,1.25-.9c-.23-.14-.42-.28-.64-.42l0,0a6.9,6.9,0,0,1-.71-.53l-1.27.91-1.4-1,1.53-1.09c-1.57-2-1.48-4.32.82-6A8.3,8.3,0,0,1,61.47,13l-.38,1.88a5.39,5.39,0,0,0-4,.75,2.13,2.13,0,0,0-.5,3.19l3.51-2.5,1.4,1L57.66,20a8.31,8.31,0,0,0,.67.51l0,0c.23.16.46.29.69.43l3.83-2.73,1.4,1-3.53,2.52a5.25,5.25,0,0,0,4.75-.45,2.43,2.43,0,0,0,.94-2.87l2.49-.3a3.72,3.72,0,0,1-1.63,4.44A9.12,9.12,0,0,1,58.64,23.28Z" transform="translate(-0.41 -0.25)"/></svg>