<svg id="Layer_1" data-name="Layer 1" xmlns="http://www.w3.org/2000/svg" viewBox="0 0 94.45 97"><defs><style>.cls-1{fill:#044041;}.cls-2{fill:none;stroke:#165681;stroke-linecap:round;stroke-linejoin:round;stroke-width:4px;}.cls-3{fill:#165681;}.cls-4{fill:#a0a4a7;}.cls-5{fill:#273035;}.cls-6{fill:#10181e;}</style></defs><title>picto_ASSISTANCE</title><path class="cls-1" d="M30.42,44.92v3.59H20.29v-3c3-5.61,4.78-9.07,5.35-10.41A8.83,8.83,0,0,0,26.49,32a2.53,2.53,0,0,0-.26-1.28.86.86,0,0,0-.78-.43.84.84,0,0,0-.78.47,4.49,4.49,0,0,0-.26,1.86v2H20.29v-.77a18.5,18.5,0,0,1,.16-2.79,5.12,5.12,0,0,1,.78-2,4.12,4.12,0,0,1,1.63-1.5A5.26,5.26,0,0,1,25.27,27a5.3,5.3,0,0,1,4.15,1.56,5.65,5.65,0,0,1,1.41,3.94A10.62,10.62,0,0,1,30,36.36a81.72,81.72,0,0,1-4.67,8.56Z" transform="translate(-1.16 -0.5)"/><path class="cls-1" d="M41.13,27.45V41.21h1.31V44.8H41.13v3.71h-4.6V44.8H31.05V41.21l4-13.76Zm-4.6,13.76v-9l-2,9Z" transform="translate(-1.16 -0.5)"/><path class="cls-1" d="M51.66,27,46.21,48.92H42.72L48.21,27Z" transform="translate(-1.16 -0.5)"/><path class="cls-1" d="M62.55,44.92v3.59H52.42v-3c3-5.61,4.79-9.07,5.35-10.41A8.62,8.62,0,0,0,58.62,32a2.54,2.54,0,0,0-.25-1.28.86.86,0,0,0-.79-.43.85.85,0,0,0-.78.47,4.53,4.53,0,0,0-.25,1.86v2H52.42v-.77a19.93,19.93,0,0,1,.16-2.79,5.31,5.31,0,0,1,.79-2A4.12,4.12,0,0,1,55,27.55a6.16,6.16,0,0,1,6.55,1.05A5.65,5.65,0,0,1,63,32.54a10.41,10.41,0,0,1-.79,3.82,79.75,79.75,0,0,1-4.67,8.56Z" transform="translate(-1.16 -0.5)"/><path class="cls-1" d="M73.26,27.45V41.21h1.31V44.8H73.26v3.71h-4.6V44.8H63.19V41.21l4-13.76Zm-4.6,13.76v-9l-2,9Z" transform="translate(-1.16 -0.5)"/><path class="cls-2" d="M88.06,69.28c6.67-8.41,5.46-22,5.46-22.44,0-22.47-20.25-40.75-45.13-40.75S3.25,24.37,3.25,46.84c0,.4-1.21,14,5.46,22.44" transform="translate(-1.16 -0.5)"/><line class="cls-2" x1="46.73" y1="5.7" x2="46.73" y2="12.18"/><line class="cls-2" x1="21.39" y1="13.17" x2="23.74" y2="17.26"/><line class="cls-2" x1="5.56" y1="30.39" x2="9.64" y2="32.76"/><line class="cls-2" x1="3.11" y1="54.03" x2="7.81" y2="54.03"/><line class="cls-2" x1="72.59" y1="13.17" x2="70.24" y2="17.26"/><line class="cls-2" x1="88.42" y1="30.39" x2="84.35" y2="32.76"/><line class="cls-2" x1="90.88" y1="54.03" x2="86.18" y2="54.03"/><path class="cls-1" d="M86,18a4,4,0,0,0-1.29-3.22A51.87,51.87,0,0,0,48.49.5,51.84,51.84,0,0,0,12.26,14.74,4,4,0,0,0,11,18,4.21,4.21,0,0,0,12.77,21a6.07,6.07,0,0,0,7.5-.43A40.41,40.41,0,0,1,48.49,9.4,40.4,40.4,0,0,1,76.7,20.58a5.81,5.81,0,0,0,4,1.53A5.94,5.94,0,0,0,84.2,21,4.21,4.21,0,0,0,86,18Z" transform="translate(-1.16 -0.5)"/><path class="cls-1" d="M84.72,14.74A51.87,51.87,0,0,0,48.49.5V9.4A40.4,40.4,0,0,1,76.7,20.58a5.81,5.81,0,0,0,4,1.53A5.94,5.94,0,0,0,84.2,21,4.21,4.21,0,0,0,86,18,4,4,0,0,0,84.72,14.74Z" transform="translate(-1.16 -0.5)"/><path class="cls-3" d="M19,58.29c-4.28,0-7.75,4.74-7.75,10.57S14.68,79.43,19,79.43s7.76-4.73,7.76-10.57S23.25,58.29,19,58.29Z" transform="translate(-1.16 -0.5)"/><path class="cls-4" d="M18,55.76a1.69,1.69,0,0,0-1.79,1.57V80.39A1.69,1.69,0,0,0,18,82a1.69,1.69,0,0,0,1.79-1.57V57.33A1.69,1.69,0,0,0,18,55.76Z" transform="translate(-1.16 -0.5)"/><path class="cls-3" d="M24.53,52.88c-2.8,0-5.07,2-5.07,4.45V80.39c0,2.46,2.27,4.46,5.07,4.46s5.07-2,5.07-4.46V57.33C29.6,54.87,27.33,52.88,24.53,52.88Z" transform="translate(-1.16 -0.5)"/><path class="cls-1" d="M6.58,68.86c0,3.61,2.56,6.54,5.71,6.54V62.32C9.14,62.32,6.58,65.25,6.58,68.86Z" transform="translate(-1.16 -0.5)"/><path class="cls-3" d="M75.41,58.29c-4.28,0-7.75,4.73-7.75,10.57s3.47,10.57,7.75,10.57,7.76-4.73,7.76-10.57S79.7,58.29,75.41,58.29Z" transform="translate(-1.16 -0.5)"/><path class="cls-4" d="M76.41,55.76a1.69,1.69,0,0,0-1.79,1.57V80.39a1.81,1.81,0,0,0,3.58,0V57.33A1.69,1.69,0,0,0,76.41,55.76Z" transform="translate(-1.16 -0.5)"/><path class="cls-3" d="M69.85,52.88c-2.81,0-5.08,2-5.08,4.45V80.39c0,2.46,2.27,4.45,5.08,4.45s5.07-2,5.07-4.45V57.33C74.92,54.87,72.65,52.88,69.85,52.88Z" transform="translate(-1.16 -0.5)"/><path class="cls-1" d="M82.09,62.44V75.28c3.09,0,5.61-2.87,5.61-6.42S85.18,62.44,82.09,62.44Z" transform="translate(-1.16 -0.5)"/><path class="cls-1" d="M86,64.72v8.36a4.22,4.22,0,0,0,0-8.36Z" transform="translate(-1.16 -0.5)"/><path class="cls-1" d="M56.64,94.78a1.34,1.34,0,1,1,0-2.68l12.81,0c7.47-.25,12.26-2.65,14.69-7.22,2.31-4.35,2.3-10,2.3-15.55v-.56a1.34,1.34,0,0,1,2.68,0v.56c0,5.56,0,11.86-2.62,16.8-3,5.58-8.62,8.44-17.35,8.66Z" transform="translate(-1.16 -0.5)"/><path class="cls-5" d="M53,97.5c-3.19,0-5.69-1.81-5.69-4.11s2.5-4.11,5.69-4.11,5.68,1.8,5.68,4.11S56.17,97.5,53,97.5Z" transform="translate(-1.16 -0.5)"/><path class="cls-6" d="M56.28,90a5.53,5.53,0,0,1,.07.92c0,3-2.31,5.53-5.54,6.26a8,8,0,0,0,2.18.3c3.18,0,5.68-1.81,5.68-4.11A3.89,3.89,0,0,0,56.28,90Z" transform="translate(-1.16 -0.5)"/></svg>