<svg id="Layer_1" data-name="Layer 1" xmlns="http://www.w3.org/2000/svg" viewBox="0 0 97.48 49.65"><defs><style>.cls-1{fill:#fff;}.cls-2{fill:#807f7f;}.cls-3{fill:#7fcadf;}.cls-4{fill:#3f3f3f;}</style></defs><title>picto_EXPERTISE</title><path class="cls-1" d="M76.08,11.14c-7.62-4.65-16-7.75-24.61-8s-19,1-26.92,5.28S7.84,18.09,1.45,25l2.88,2.3s4.43,3.29,5.33,4c1.8,1.47,3.66,2.83,5.55,4.12A89.35,89.35,0,0,0,26.8,42.3c8,3.89,16.3,6.36,24.65,6.1,8.17-.26,16.43-2.92,24.08-7.17A82.51,82.51,0,0,0,96.65,24.61Z" transform="translate(-1.03 -0.81)"/><path class="cls-2" d="M1.14,24.54A87.23,87.23,0,0,1,22.47,8.27C30.4,4,39.28,1.05,48.55.82S66.94,3.22,75.17,7.2A89.06,89.06,0,0,1,97.71,22.89a2.61,2.61,0,0,1,.08,3.68l-.08.09a87.23,87.23,0,0,1-10.4,9.21,90.16,90.16,0,0,1-11.64,7.54c-8.22,4.33-17.5,7.29-27.22,7a57.86,57.86,0,0,1-26.7-7.84,76.05,76.05,0,0,1-11.28-7.78q-2.6-2.22-5-4.62c-.8-.8-1.59-1.62-2.34-2.47L2,26.42l-.51-.69-.25-.36-.13-.2L1.09,25a.4.4,0,0,1,0-.13.18.18,0,0,1,0-.11.43.43,0,0,1,.21-.34Zm.69.3.06.05.28.27.62.54,1.3,1c.87.68,1.76,1.34,2.66,2,1.8,1.27,3.65,2.47,5.54,3.58a92.44,92.44,0,0,0,11.6,6c8,3.39,16.3,5.54,24.65,5.31a59.55,59.55,0,0,0,24.07-6.24A81.77,81.77,0,0,0,93.73,22.89v3.77A84.27,84.27,0,0,0,73.16,11.17c-7.61-4-16-6.75-24.61-6.93S31.32,6.34,23.4,10.1A86.23,86.23,0,0,0,1.83,24.84Z" transform="translate(-1.03 -0.81)"/><path class="cls-2" d="M48.54,2.57A22.21,22.21,0,1,0,70.75,24.78,22.2,22.2,0,0,0,48.54,2.57Zm0,38.81a16.61,16.61,0,1,1,16.61-16.6A16.6,16.6,0,0,1,48.54,41.38Z" transform="translate(-1.03 -0.81)"/><path class="cls-3" d="M48.31,7.63A17.59,17.59,0,1,0,65.9,25.22,17.59,17.59,0,0,0,48.31,7.63Z" transform="translate(-1.03 -0.81)"/><path class="cls-4" d="M48.54,14.26a10.88,10.88,0,0,0-1.51.15,6.41,6.41,0,0,1,.19,1.53,6.67,6.67,0,0,1-6.66,6.67,6.79,6.79,0,0,1-2.18-.39A10.27,10.27,0,0,0,38,24.78,10.52,10.52,0,1,0,48.54,14.26Z" transform="translate(-1.03 -0.81)"/><ellipse class="cls-1" cx="42.04" cy="17.62" rx="6.2" ry="5.62" transform="translate(-1.81 32.45) rotate(-42.81)"/></svg>