<svg id="Layer_1" data-name="Layer 1" xmlns="http://www.w3.org/2000/svg" viewBox="0 0 72.54 119"><defs><style>.cls-1{fill:#1a2d3e;}.cls-2{fill:#e7e8e9;}.cls-3{fill:#53b07e;}.cls-4{fill:#930e5f;}.cls-5{fill:#e8ae22;}.cls-6{fill:#fff;}</style></defs><title>picto_CARNET-VOYAGE</title><polygon class="cls-1" points="0 14.45 61.68 0 61.68 98.06 0 117.78 0 14.45"/><polygon class="cls-2" points="0 18.94 57.59 5.9 57.59 96.97 0 115.38 0 18.94"/><rect class="cls-1" y="14.45" width="72.54" height="104.55"/><rect class="cls-1" x="36.54" y="14.45" width="36" height="104.55"/><polygon class="cls-3" points="15.88 4.51 10.92 0.9 10.92 14.41 20.84 14.41 20.84 0.9 15.88 4.51"/><polygon class="cls-4" points="28.5 4.51 23.54 0.9 23.54 14.41 33.46 14.41 33.46 0.9 28.5 4.51"/><polygon class="cls-5" points="35.24 4.51 30.27 0.9 30.27 14.41 40.2 14.41 40.2 0.9 35.24 4.51"/><path class="cls-6" d="M24.88,48.59a3.16,3.16,0,0,0-2.27-.87,2.47,2.47,0,0,0-2.48,2.71,2.5,2.5,0,0,0,2.55,2.7A3.44,3.44,0,0,0,25,52.28v1.83a4.54,4.54,0,0,1-2.41.62,4.31,4.31,0,0,1,0-8.61,4.42,4.42,0,0,1,2.27.56Z" transform="translate(-0.77 0.12)"/><path class="cls-6" d="M29.65,50.5c0-.61-.5-.86-1.12-.86a3.45,3.45,0,0,0-1.81.52V48.7a4.29,4.29,0,0,1,2.1-.5c1.43,0,2.5.56,2.5,2.23v4a11.78,11.78,0,0,1-2.36.25c-1.58,0-2.8-.47-2.8-1.92,0-1.3,1.05-1.92,2.8-1.92h.69Zm0,1.45h-.56c-.79,0-1.25.23-1.25.76s.44.77,1.11.77a3,3,0,0,0,.7-.07Z" transform="translate(-0.77 0.12)"/><path class="cls-6" d="M34.7,54.59H33V48.81a5.47,5.47,0,0,1,2.49-.57,4.34,4.34,0,0,1,1.3.17V50a3.44,3.44,0,0,0-1.26-.21,2.91,2.91,0,0,0-.85.14Z" transform="translate(-0.77 0.12)"/><path class="cls-6" d="M38,48.74a9.24,9.24,0,0,1,3-.54c1.62,0,2.67.6,2.67,2.46v3.93H41.92V50.78a1,1,0,0,0-1.11-1.07,4.05,4.05,0,0,0-1.18.18v4.7H38Z" transform="translate(-0.77 0.12)"/><path class="cls-6" d="M46.52,51.93v0a1.71,1.71,0,0,0,1.83,1.33,3.87,3.87,0,0,0,2.09-.55v1.42a4,4,0,0,1-2.25.58,3.27,3.27,0,0,1-.26-6.53c2,0,2.71,1.29,2.71,2.94v.79Zm2.55-1c0-.77-.38-1.33-1.18-1.33s-1.2.51-1.36,1.33Z" transform="translate(-0.77 0.12)"/><path class="cls-6" d="M51.29,48.34h.94V46.8h1.68v1.54h1.78v1.4H53.91v2.51c0,.71.33.94.84.94a2.18,2.18,0,0,0,1.15-.35v1.54a3.36,3.36,0,0,1-1.61.35,1.86,1.86,0,0,1-2.06-2v-3h-.94Z" transform="translate(-0.77 0.12)"/><path class="cls-6" d="M14.46,65.65a10.55,10.55,0,0,1-2.55.29c-2.16,0-3.59-1.14-3.59-3.25a3.09,3.09,0,0,1,3.28-3.27,2.9,2.9,0,0,1,1.17.19V56.28h1.69ZM12.77,61.1a2.33,2.33,0,0,0-1-.2A1.59,1.59,0,0,0,10,62.64,1.74,1.74,0,0,0,12,64.5a4.09,4.09,0,0,0,.81-.07Z" transform="translate(-0.77 0.12)"/><path class="cls-6" d="M17.46,63.14v0a1.71,1.71,0,0,0,1.83,1.33,3.79,3.79,0,0,0,2.09-.56v1.43a4,4,0,0,1-2.25.57,3.26,3.26,0,0,1-.26-6.52c1.95,0,2.71,1.29,2.71,2.94v.78Zm2.55-1c0-.78-.38-1.34-1.18-1.34s-1.2.52-1.36,1.34Z" transform="translate(-0.77 0.12)"/><path class="cls-6" d="M27.25,65.81l-2.42-6.25h1.83l1.6,4.58,1.59-4.58h1.77l-2.4,6.25Z" transform="translate(-0.77 0.12)"/><path class="cls-6" d="M35.31,59.42A3.26,3.26,0,1,1,32,62.68,3.15,3.15,0,0,1,35.31,59.42Zm0,1.45a1.83,1.83,0,1,0,1.57,1.81A1.61,1.61,0,0,0,35.31,60.87Z" transform="translate(-0.77 0.12)"/><path class="cls-6" d="M42.43,64,44,59.56h1.77l-3.42,8.77H40.68L41.56,66,39,59.56h1.83Z" transform="translate(-0.77 0.12)"/><path class="cls-6" d="M49.67,61.71c0-.6-.51-.85-1.13-.85a3.33,3.33,0,0,0-1.8.52V59.92a4.29,4.29,0,0,1,2.1-.5c1.43,0,2.49.56,2.49,2.22v4a11.6,11.6,0,0,1-2.35.25c-1.58,0-2.8-.48-2.8-1.92s1-1.92,2.8-1.92h.69Zm0,1.46h-.56c-.79,0-1.25.23-1.25.76s.43.77,1.11.77a3.68,3.68,0,0,0,.7-.07Z" transform="translate(-0.77 0.12)"/><path class="cls-6" d="M56.93,65.54a2.87,2.87,0,0,1-1.15.21,2.93,2.93,0,0,1-3.21-3.14c0-2,1.33-3.19,3.52-3.19a6.76,6.76,0,0,1,2.53.47v5.82c0,2.14-1.72,2.76-3.13,2.76A5.08,5.08,0,0,1,53.34,68V66.44a4,4,0,0,0,2.15.61,1.3,1.3,0,0,0,1.44-1.38Zm0-4.53a3,3,0,0,0-.84-.12A1.72,1.72,0,1,0,56,64.33a2.77,2.77,0,0,0,1-.18Z" transform="translate(-0.77 0.12)"/><path class="cls-6" d="M61.57,63.14v0a1.72,1.72,0,0,0,1.84,1.33,3.84,3.84,0,0,0,2.09-.56v1.43a4,4,0,0,1-2.26.57A3.26,3.26,0,0,1,63,59.42c1.95,0,2.7,1.29,2.7,2.94v.78Zm2.55-1c0-.78-.38-1.34-1.17-1.34s-1.21.52-1.36,1.34Z" transform="translate(-0.77 0.12)"/></svg>