<svg xmlns="http://www.w3.org/2000/svg" viewBox="0 0 111.49 108.43"><defs><style>.cls-1{isolation:isolate;}.cls-2{fill:#fff;}.cls-3{fill:#ccc;}.cls-4,.cls-5,.cls-6{fill:none;stroke-linecap:round;}.cls-4{stroke:#333;stroke-linejoin:round;stroke-width:7.04px;}.cls-5,.cls-6{stroke:#e8170d;stroke-width:2px;}.cls-6{stroke-dasharray:1.99 7.95;}.cls-7{fill:#f2f2f2;}.cls-8{fill:#e0e8e8;mix-blend-mode:multiply;}.cls-9{fill:#d5221f;}.cls-10{fill:#971411;}.cls-11{fill:#e7e8e9;}.cls-12{fill:#53b07e;}.cls-13{fill:#337a59;}</style></defs><title>picto_SUR-MESURE</title><g class="cls-1"><g id="Layer_1" data-name="Layer 1"><polygon class="cls-2" points="0 0 0 90.95 38.37 106.93 73.09 92.48 111.49 108.43 111.49 17.48 73.08 1.52 38.37 15.98 0 0 0 0"/><polygon class="cls-3" points="73.08 87.37 106.79 101.38 106.79 20.61 73.08 6.61 38.37 21.06 4.7 7.04 4.7 87.81 38.37 101.83 73.08 87.37"/><path class="cls-4" d="M76.38,92.05" transform="translate(-0.91 -0.94)"/><path class="cls-5" d="M14.82,44.63c.06.32.13.64.21,1" transform="translate(-0.91 -0.94)"/><path class="cls-6" d="M17.71,53.08c3.92,8,11.31,14.93,22.13,8,17.82-11.47,7.78-28,.21-28-8.8,0-16.71,11.67-16.71,22.59C23.34,74.09,32.53,80,39.12,83c6.92,3.15,15.64,2.9,21.61-.56a20,20,0,0,0,9-19.73c-1.18-7.33-6.46-12.3-7.87-19.39C58.16,24.7,76,21.65,83.89,23.58,89,24.83,97.79,30.86,96.76,44c-.27,3.4-1.49,6.66-2.58,9.8a54.94,54.94,0,0,0-1.36,6.92" transform="translate(-0.91 -0.94)"/><path class="cls-5" d="M92.21,64.68c-.06.38-.12.71-.17,1" transform="translate(-0.91 -0.94)"/><path class="cls-7" d="M74,2.46,39.28,16.91.91.94v91l38.37,16L74,93.41l38.4,16V18.42Zm33.71,99.85L74,88.31,39.28,102.76l-33.67-14V8L39.28,22,74,7.54l33.71,14Z" transform="translate(-0.91 -0.94)"/><polygon class="cls-8" points="38.37 15.98 73.08 1.52 73.09 92.48 38.37 106.93 38.37 15.98"/><path class="cls-9" d="M92.65,69V94.28S84,85.19,84,77.67A8.63,8.63,0,0,1,92.65,69Z" transform="translate(-0.91 -0.94)"/><path class="cls-10" d="M92.65,69V94.28s8.63-9.09,8.63-16.61A8.63,8.63,0,0,0,92.65,69Z" transform="translate(-0.91 -0.94)"/><circle class="cls-2" cx="91.74" cy="76.68" r="5.96"/><path class="cls-11" d="M92.65,71.65V83.58a6,6,0,0,0,0-11.93Z" transform="translate(-0.91 -0.94)"/><path class="cls-12" d="M16.09,15.88V41.12S7.46,32,7.46,24.51A8.63,8.63,0,0,1,16.09,15.88Z" transform="translate(-0.91 -0.94)"/><path class="cls-13" d="M16.09,15.88V41.12s8.63-9.1,8.63-16.61A8.63,8.63,0,0,0,16.09,15.88Z" transform="translate(-0.91 -0.94)"/><path class="cls-2" d="M22.05,24.45a6,6,0,1,1-6-6A6,6,0,0,1,22.05,24.45Z" transform="translate(-0.91 -0.94)"/><path class="cls-11" d="M16.09,18.49V30.42a6,6,0,0,0,0-11.93Z" transform="translate(-0.91 -0.94)"/></g></g></svg>